<svg width="111" height="58" viewBox="0 0 111 58" fill="none" xmlns="http://www.w3.org/2000/svg">
<path d="M38.1406 24.1758C37.8203 24.1758 37.4727 24.1484 37.0977 24.0938C36.7227 24.0469 36.3516 23.9414 35.9844 23.7773C35.6172 23.6133 35.2617 23.3828 34.918 23.0859C34.582 22.7812 34.2812 22.3828 34.0156 21.8906C33.7578 21.3984 33.5508 20.793 33.3945 20.0742C33.2383 19.3477 33.1602 18.4844 33.1602 17.4844V10.3945C33.1602 9.38672 33.2383 8.52734 33.3945 7.81641C33.5586 7.09766 33.7734 6.49609 34.0391 6.01172C34.3047 5.51953 34.6055 5.12891 34.9414 4.83984C35.2852 4.55078 35.6406 4.33203 36.0078 4.18359C36.3828 4.02734 36.7539 3.92578 37.1211 3.87891C37.4883 3.83203 37.8281 3.80859 38.1406 3.80859C38.4375 3.80859 38.7656 3.83203 39.125 3.87891C39.4922 3.91797 39.8555 4.01172 40.2148 4.16016C40.582 4.30078 40.9375 4.51562 41.2812 4.80469C41.625 5.08594 41.9297 5.47266 42.1953 5.96484C42.4609 6.44922 42.6719 7.05469 42.8281 7.78125C42.9922 8.5 43.0742 9.37109 43.0742 10.3945V17.4844C43.0742 18.4766 42.9922 19.332 42.8281 20.0508C42.6641 20.7617 42.4492 21.3672 42.1836 21.8672C41.918 22.3594 41.6094 22.7578 41.2578 23.0625C40.9141 23.3594 40.5586 23.5938 40.1914 23.7656C39.832 23.9297 39.4727 24.0391 39.1133 24.0938C38.7539 24.1484 38.4297 24.1758 38.1406 24.1758ZM38.1406 21.8906C38.4375 21.8906 38.6953 21.8398 38.9141 21.7383C39.1406 21.6367 39.3242 21.4609 39.4648 21.2109C39.6133 20.9609 39.7227 20.6328 39.793 20.2266C39.8711 19.8125 39.9102 19.293 39.9102 18.668V9.5625C39.9102 8.92188 39.8711 8.38672 39.793 7.95703C39.7227 7.52734 39.6133 7.18359 39.4648 6.92578C39.3242 6.66016 39.1406 6.47266 38.9141 6.36328C38.6953 6.25391 38.4375 6.19922 38.1406 6.19922C37.8359 6.19922 37.5703 6.25391 37.3438 6.36328C37.1172 6.47266 36.9297 6.66016 36.7812 6.92578C36.6328 7.18359 36.5195 7.52734 36.4414 7.95703C36.3711 8.38672 36.3359 8.92188 36.3359 9.5625V18.668C36.3359 19.293 36.3711 19.8125 36.4414 20.2266C36.5195 20.6328 36.6328 20.9609 36.7812 21.2109C36.9297 21.4609 37.1172 21.6367 37.3438 21.7383C37.5703 21.8398 37.8359 21.8906 38.1406 21.8906ZM45.9453 3.98438H48.9805V21.6094H53.1172V24H45.9453V3.98438ZM55.0391 3.98438H58.0742V24H55.0391V3.98438ZM65.5508 24.1875C65.3164 24.1875 65.043 24.1602 64.7305 24.1055C64.418 24.0586 64.0938 23.9531 63.7578 23.7891C63.4297 23.625 63.1055 23.3945 62.7852 23.0977C62.4648 22.793 62.1758 22.3945 61.918 21.9023C61.668 21.4023 61.4648 20.793 61.3086 20.0742C61.1523 19.3477 61.0742 18.4844 61.0742 17.4844V10.3945C61.0742 9.38672 61.1562 8.52734 61.3203 7.81641C61.4844 7.09766 61.7031 6.49609 61.9766 6.01172C62.25 5.51953 62.5625 5.12891 62.9141 4.83984C63.2734 4.55078 63.6445 4.33203 64.0273 4.18359C64.4102 4.02734 64.7891 3.92578 65.1641 3.87891C65.5391 3.83203 65.8867 3.80859 66.207 3.80859C67.0195 3.80859 67.7031 3.92188 68.2578 4.14844C68.8203 4.36719 69.2734 4.67188 69.6172 5.0625C69.9688 5.44531 70.2188 5.89453 70.3672 6.41016C70.5234 6.92578 70.6016 7.47266 70.6016 8.05078C70.6016 8.48047 70.5742 8.87891 70.5195 9.24609C70.4727 9.60547 70.4062 10.0039 70.3203 10.4414H67.8945V9.49219C67.8945 7.29688 67.3047 6.19922 66.125 6.19922C65.8047 6.19922 65.5273 6.25391 65.293 6.36328C65.0586 6.47266 64.8633 6.66016 64.707 6.92578C64.5508 7.18359 64.4336 7.52734 64.3555 7.95703C64.2852 8.38672 64.25 8.92188 64.25 9.5625V18.6328C64.25 19.2578 64.2852 19.7773 64.3555 20.1914C64.4336 20.6055 64.5469 20.9375 64.6953 21.1875C64.8516 21.4375 65.043 21.6172 65.2695 21.7266C65.5039 21.8281 65.7812 21.8789 66.1016 21.8789C66.4375 21.8789 66.7266 21.793 66.9688 21.6211C67.2109 21.4414 67.4102 21.1992 67.5664 20.8945C67.7227 20.5898 67.8359 20.2305 67.9062 19.8164C67.9844 19.4023 68.0234 18.9531 68.0234 18.4688V15.8555H66.4648V13.8633H70.9766V24H68.9609L68.6328 22.1016C68.25 22.8438 67.8086 23.3789 67.3086 23.707C66.8164 24.0273 66.2305 24.1875 65.5508 24.1875Z" fill="white"/>
<path d="M8.26562 39.2266C7.82812 39.2109 7.27344 39.2109 6.60156 39.2266C5.92969 39.2266 5.26562 39.2344 4.60938 39.25C4.17188 39.2656 3.72656 39.2969 3.27344 39.3438C2.88281 39.375 2.45312 39.4219 1.98438 39.4844C1.51562 39.5469 1.07031 39.6406 0.648438 39.7656C0.632812 39.6406 0.632812 39.5234 0.648438 39.4141C0.664062 39.2891 0.6875 39.1719 0.71875 39.0625C0.75 38.9375 0.78125 38.8203 0.8125 38.7109C0.875 38.5547 0.960938 38.3906 1.07031 38.2188C1.19531 38.0469 1.30469 37.9375 1.39844 37.8906C1.47656 37.8594 1.63281 37.8281 1.86719 37.7969C2.11719 37.7656 2.40625 37.7422 2.73438 37.7266C3.07812 37.6953 3.45312 37.6719 3.85938 37.6562C4.28125 37.6406 4.69531 37.6328 5.10156 37.6328C5.92969 37.6172 6.61719 37.625 7.16406 37.6562C7.71094 37.6719 8.23438 37.7031 8.73438 37.75C8.95312 37.7812 9.07812 37.8516 9.10938 37.9609C9.15625 38.0703 9.13281 38.2656 9.03906 38.5469C8.94531 38.8125 8.84375 39 8.73438 39.1094C8.625 39.2031 8.46875 39.2422 8.26562 39.2266ZM10.0234 50.3828C9.41406 50.3984 8.91406 50.2891 8.52344 50.0547C8.11719 49.8203 7.80469 49.4766 7.58594 49.0234C7.35156 48.5859 7.20312 48.0469 7.14062 47.4062C7.07812 46.7812 7.07812 46.0938 7.14062 45.3438C7.21875 44.7656 7.35938 44.1641 7.5625 43.5391C7.73438 43.0078 8 42.4219 8.35938 41.7812C8.70312 41.1406 9.17188 40.5156 9.76562 39.9062C9.89062 39.9375 9.99219 39.9766 10.0703 40.0234C10.1484 40.0547 10.2109 40.0938 10.2578 40.1406C10.3047 40.2031 10.3359 40.2578 10.3516 40.3047C10.3828 40.4766 10.3359 40.6719 10.2109 40.8906C10.0859 41.1094 9.96094 41.3438 9.83594 41.5938C9.49219 42.3125 9.23438 42.9922 9.0625 43.6328C8.89062 44.2734 8.78125 44.8672 8.73438 45.4141C8.70312 45.8828 8.71094 46.3047 8.75781 46.6797C8.78906 47.0703 8.84375 47.3984 8.92188 47.6641C9 47.9453 9.08594 48.1562 9.17969 48.2969C9.27344 48.4531 9.35938 48.5312 9.4375 48.5312C9.51562 48.5312 9.59375 48.4766 9.67188 48.3672C9.76562 48.2578 9.85156 48.125 9.92969 47.9688C10.0234 47.8125 10.1328 47.5703 10.2578 47.2422C10.3828 46.9297 10.5156 46.5625 10.6562 46.1406C10.7969 45.7188 10.9297 45.2656 11.0547 44.7812C11.1953 44.2812 11.3203 43.7812 11.4297 43.2812C11.6484 42.2812 11.8828 41.1562 12.1328 39.9062C12.3828 38.6406 12.75 37.3203 13.2344 35.9453C13.3906 35.3672 13.5859 34.7344 13.8203 34.0469C14.0078 33.4531 14.2422 32.7656 14.5234 31.9844C14.8203 31.1875 15.1562 30.3281 15.5312 29.4062C15.5312 29.3281 15.5938 29.2578 15.7188 29.1953C15.8594 29.1172 16.0156 29.0391 16.1875 28.9609C16.375 28.8828 16.5859 28.8047 16.8203 28.7266C17.1328 28.6172 17.375 28.5547 17.5469 28.5391C17.7344 28.5234 17.875 28.5469 17.9688 28.6094C18.0625 28.6719 18.125 28.7578 18.1562 28.8672C18.1875 28.9609 18.2031 29.0703 18.2031 29.1953C18.2344 29.7109 18.25 30.1953 18.25 30.6484C18.2656 31.1016 18.2812 31.5 18.2969 31.8438C18.3125 32.25 18.3203 32.6172 18.3203 32.9453C18.3359 33.3828 18.3125 33.9688 18.25 34.7031C18.1875 35.4219 18.1172 36.1797 18.0391 36.9766C17.9766 37.7734 17.9141 38.5547 17.8516 39.3203C17.8047 40.0703 17.7969 40.6953 17.8281 41.1953C17.8281 41.4609 17.8359 41.7109 17.8516 41.9453C17.8828 42.1641 17.9141 42.3828 17.9453 42.6016C18.1484 42.0391 18.375 41.4531 18.625 40.8438C18.875 40.2188 19.125 39.625 19.375 39.0625C19.625 38.4844 19.8594 37.9531 20.0781 37.4688C20.2969 36.9688 20.4688 36.5547 20.5938 36.2266C20.7812 35.7891 21.0312 35.2344 21.3438 34.5625C21.6562 33.8906 21.9688 33.2188 22.2812 32.5469C22.6094 31.875 22.9062 31.2578 23.1719 30.6953C23.4531 30.1328 23.6562 29.7422 23.7812 29.5234C23.875 29.3672 24.0312 29.2266 24.25 29.1016C24.4844 28.9766 24.7266 28.8672 24.9766 28.7734C25.2422 28.6797 25.4844 28.6172 25.7031 28.5859C25.9375 28.5391 26.0938 28.5312 26.1719 28.5625C26.375 28.6094 26.5156 28.6719 26.5938 28.75C26.6875 28.8281 26.7422 28.8828 26.7578 28.9141C26.7891 28.9766 26.8125 29.0859 26.8281 29.2422C26.8438 29.3828 26.8359 29.6094 26.8047 29.9219C26.7734 30.2969 26.6797 30.8672 26.5234 31.6328C26.3828 32.3984 26.2031 33.2734 25.9844 34.2578C25.7812 35.2266 25.5547 36.2656 25.3047 37.375C25.0703 38.4844 24.8438 39.5781 24.625 40.6562C24.4062 41.7188 24.2109 42.7188 24.0391 43.6562C23.8828 44.5938 23.7812 45.3828 23.7344 46.0234C23.7031 46.7422 23.75 47.375 23.875 47.9219C23.9219 48.1562 23.9922 48.3828 24.0859 48.6016C24.1797 48.8203 24.3047 49.0078 24.4609 49.1641C24.6172 49.3359 24.8047 49.4609 25.0234 49.5391C25.2422 49.6172 25.5 49.6406 25.7969 49.6094C25.4062 49.875 25.0234 50.0703 24.6484 50.1953C24.2734 50.3203 23.9062 50.3828 23.5469 50.3828C23.1562 50.3984 22.8125 50.3359 22.5156 50.1953C22.2188 50.0703 21.9688 49.8828 21.7656 49.6328C21.5625 49.3984 21.4141 49.1094 21.3203 48.7656C21.2266 48.4375 21.1953 48.0703 21.2266 47.6641C21.2578 47.2891 21.3594 46.6719 21.5312 45.8125C21.7031 44.9531 21.9062 43.9844 22.1406 42.9062C22.3906 41.8125 22.6562 40.6797 22.9375 39.5078C23.2344 38.3203 23.5078 37.2109 23.7578 36.1797C24.0234 35.1328 24.25 34.2344 24.4375 33.4844C24.625 32.7344 24.7422 32.2422 24.7891 32.0078C24.8203 31.8203 24.8438 31.6484 24.8594 31.4922C24.8906 31.3203 24.9219 31.1719 24.9531 31.0469C24.7969 31.3594 24.6016 31.7344 24.3672 32.1719C24.1484 32.6094 23.9141 33.0781 23.6641 33.5781C23.4141 34.0781 23.1562 34.6016 22.8906 35.1484C22.6406 35.6797 22.3984 36.1953 22.1641 36.6953C21.7734 37.5078 21.3906 38.3438 21.0156 39.2031C20.6406 40.0469 20.3047 40.8516 20.0078 41.6172C19.7109 42.3828 19.4609 43.0703 19.2578 43.6797C19.0703 44.2891 18.9609 44.7578 18.9297 45.0859V45.4141C18.9297 45.5078 18.9297 45.6172 18.9297 45.7422C18.9453 45.8672 18.9688 45.9844 19 46.0938L18.0625 46.8203C17.9219 46.8672 17.7969 46.9062 17.6875 46.9375C17.5938 46.9688 17.5 46.9844 17.4062 46.9844C17.0469 46.9844 16.7734 46.7969 16.5859 46.4219C16.3984 46.0781 16.2266 45.4062 16.0703 44.4062C15.9141 43.4062 15.8672 42.1797 15.9297 40.7266C15.9609 40.0078 16.0078 39.2812 16.0703 38.5469C16.1484 37.8125 16.2188 37.1094 16.2812 36.4375C16.3594 35.7656 16.4297 35.1406 16.4922 34.5625C16.5547 33.9688 16.5859 33.4609 16.5859 33.0391C16.6016 32.7266 16.5938 32.4453 16.5625 32.1953C16.5312 31.9297 16.5 31.6875 16.4688 31.4688C16.3281 31.8281 16.1719 32.3203 16 32.9453C15.8281 33.5547 15.6484 34.2344 15.4609 34.9844C15.2734 35.7344 15.0781 36.5234 14.875 37.3516C14.6875 38.1797 14.5 38.9766 14.3125 39.7422C14.1406 40.5078 13.9766 41.2188 13.8203 41.875C13.6641 42.5156 13.5391 43.0312 13.4453 43.4219C13.2891 44.0469 13.1328 44.7578 12.9766 45.5547C12.8203 46.3516 12.625 47.1016 12.3906 47.8047C12.1562 48.5234 11.8516 49.125 11.4766 49.6094C11.1016 50.1094 10.6172 50.3672 10.0234 50.3828ZM37.2344 28.3516C37.7812 28.3516 38.2266 28.5078 38.5703 28.8203C38.9297 29.1172 39.0859 29.6641 39.0391 30.4609C39.0234 30.7266 38.9609 31.2266 38.8516 31.9609C38.7422 32.6797 38.6094 33.5312 38.4531 34.5156C38.2969 35.5 38.1172 36.5625 37.9141 37.7031C37.7266 38.8281 37.5469 39.9297 37.375 41.0078H37.8672C38.0234 41.0078 38.1953 41 38.3828 40.9844C38.5703 40.9688 38.7656 40.9453 38.9688 40.9141C38.8906 41.1016 38.8047 41.2812 38.7109 41.4531C38.6172 41.6094 38.5234 41.75 38.4297 41.875C38.3203 42.0156 38.2109 42.1406 38.1016 42.25C37.9609 42.4219 37.7969 42.5781 37.6094 42.7188C37.4219 42.8438 37.2422 42.9453 37.0703 43.0234C36.9609 43.7891 36.8672 44.4766 36.7891 45.0859C36.7266 45.6797 36.6875 46.1719 36.6719 46.5625C36.6406 47.1562 36.6562 47.7109 36.7188 48.2266C36.7656 48.6797 36.8594 49.1406 37 49.6094C37.1406 50.0781 37.3672 50.4531 37.6797 50.7344L34.9609 51.625C34.7734 51.3594 34.6328 51 34.5391 50.5469C34.4609 50.1094 34.4062 49.6719 34.375 49.2344C34.3281 48.7188 34.3203 48.1875 34.3516 47.6406C34.3828 47.0938 34.4688 46.3828 34.6094 45.5078C34.75 44.6172 34.9062 43.6484 35.0781 42.6016C34.7656 42.5078 34.4219 42.4297 34.0469 42.3672C33.6875 42.3047 33.2812 42.2734 32.8281 42.2734C32.4219 42.2734 31.9922 42.2891 31.5391 42.3203C31.1016 42.3516 30.6641 42.3906 30.2266 42.4375C30.0391 43.125 29.8516 43.8516 29.6641 44.6172C29.4609 45.4453 29.2734 46.1484 29.1016 46.7266C28.9453 47.3203 28.7891 47.8125 28.6328 48.2031C28.4922 48.5938 28.3438 48.9062 28.1875 49.1406C28.0469 49.375 27.8906 49.5469 27.7188 49.6562C27.5312 49.75 27.2969 49.8359 27.0156 49.9141C26.75 49.9922 26.4141 50.0703 26.0078 50.1484C25.6016 50.2266 25.0781 50.2891 24.4375 50.3359C24.6719 50.0547 24.875 49.7969 25.0469 49.5625C25.2188 49.3281 25.3906 49.0391 25.5625 48.6953C25.7344 48.3516 25.9297 47.9062 26.1484 47.3594C26.3516 46.8281 26.6172 46.125 26.9453 45.25C27.0859 44.8906 27.2266 44.5 27.3672 44.0781C27.5234 43.6406 27.6875 43.1953 27.8594 42.7422C27.2969 42.8203 26.8203 42.8906 26.4297 42.9531C26.0391 43.0156 25.8047 43.0625 25.7266 43.0938C25.6016 43.1094 25.5 43.1094 25.4219 43.0938C25.2188 43.0625 25.1094 42.9609 25.0938 42.7891C25.1094 42.5703 25.1875 42.4219 25.3281 42.3438C25.4531 42.2656 25.6484 42.1719 25.9141 42.0625C26.0391 42 26.3281 41.8906 26.7812 41.7344C27.2188 41.5625 27.7578 41.3828 28.3984 41.1953C28.6328 40.5391 28.8594 39.8906 29.0781 39.25C29.3125 38.5938 29.5391 37.9688 29.7578 37.375C29.9766 36.7812 30.1875 36.2266 30.3906 35.7109C30.5938 35.1797 30.7812 34.7266 30.9531 34.3516C31.2188 33.7734 31.5547 33.1406 31.9609 32.4531C32.3828 31.75 32.8594 31.0938 33.3906 30.4844C33.9375 29.875 34.5312 29.3672 35.1719 28.9609C35.8281 28.5547 36.5156 28.3516 37.2344 28.3516ZM36.9766 33.2266C37.1484 32.5234 37.2656 31.9453 37.3281 31.4922C37.3906 31.0391 37.4141 30.6875 37.3984 30.4375C37.3828 30.1719 37.3281 29.9922 37.2344 29.8984C37.1562 29.7891 37.0547 29.7344 36.9297 29.7344C36.7266 29.7344 36.4766 29.8125 36.1797 29.9688C35.8828 30.125 35.5703 30.3516 35.2422 30.6484C34.9141 30.9297 34.5859 31.2891 34.2578 31.7266C33.9453 32.1484 33.6641 32.6328 33.4141 33.1797C33.0547 33.9922 32.6484 34.9922 32.1953 36.1797C31.7422 37.3516 31.25 38.8516 30.7188 40.6797C31.0312 40.6328 31.3359 40.5938 31.6328 40.5625C31.9453 40.5312 32.25 40.5156 32.5469 40.5156C33.0781 40.5156 33.5859 40.5391 34.0703 40.5859C34.5547 40.6172 35 40.6562 35.4062 40.7031C35.5469 39.9531 35.6875 39.2188 35.8281 38.5C35.9844 37.7656 36.1328 37.0703 36.2734 36.4141C36.4141 35.7578 36.5391 35.1562 36.6484 34.6094C36.7734 34.0625 36.8828 33.6016 36.9766 33.2266ZM40.7969 41.3125C40.7188 40.9688 40.7188 40.75 40.7969 40.6562C40.8906 40.5469 41.0938 40.4531 41.4062 40.375C41.5156 39.9219 41.6172 39.4922 41.7109 39.0859C41.8047 38.6797 41.8984 38.2812 41.9922 37.8906C42.2578 36.7656 42.5078 35.7656 42.7422 34.8906C42.9922 34 43.2188 33.2031 43.4219 32.5C43.6406 31.7969 43.8438 31.1641 44.0312 30.6016C44.2188 30.0391 44.3984 29.5156 44.5703 29.0312C44.7422 28.9062 44.9141 28.8125 45.0859 28.75C45.2578 28.6719 45.4219 28.6094 45.5781 28.5625C45.75 28.5 45.9297 28.4531 46.1172 28.4219C46.2734 28.4062 46.4141 28.4062 46.5391 28.4219C46.6484 28.4375 46.7422 28.4688 46.8203 28.5156C46.8984 28.5625 46.9453 28.6328 46.9609 28.7266C46.3672 30.3047 45.8516 31.7656 45.4141 33.1094C44.9922 34.4531 44.6406 35.6172 44.3594 36.6016C44.0312 37.7578 43.7578 38.8125 43.5391 39.7656C44.2891 39.4688 45.0078 39.0469 45.6953 38.5C46.3984 37.9375 47.0391 37.3203 47.6172 36.6484C48.1953 35.9609 48.7109 35.25 49.1641 34.5156C49.6328 33.7656 50.0078 33.0469 50.2891 32.3594C50.5703 31.6719 50.7578 31.0391 50.8516 30.4609C50.9609 29.8828 50.9453 29.4219 50.8047 29.0781C51.1797 28.9062 51.5312 28.7734 51.8594 28.6797C52.0312 28.6172 52.1953 28.5703 52.3516 28.5391C52.7578 28.4297 53.0078 28.5 53.1016 28.75C53.2109 28.9844 53.25 29.3438 53.2188 29.8281C53.1719 30.9375 52.8906 32.0234 52.375 33.0859C51.875 34.1484 51.2344 35.1484 50.4531 36.0859C49.6719 37.0078 48.8047 37.8359 47.8516 38.5703C46.9141 39.3047 45.9844 39.8828 45.0625 40.3047C45.3281 40.2734 45.5859 40.25 45.8359 40.2344C46.0859 40.2188 46.3203 40.2109 46.5391 40.2109C46.9609 40.2109 47.3516 40.2578 47.7109 40.3516C48.0703 40.4297 48.3828 40.5703 48.6484 40.7734C48.9297 40.9766 49.1406 41.2422 49.2812 41.5703C49.4375 41.8984 49.5078 42.3047 49.4922 42.7891C49.4609 43.5391 49.3594 44.2031 49.1875 44.7812C49.0156 45.3594 48.8281 45.8906 48.625 46.375C48.4375 46.875 48.2578 47.3359 48.0859 47.7578C47.9141 48.1797 47.8203 48.6094 47.8047 49.0469C47.7891 49.4844 47.8516 49.8438 47.9922 50.125C48.1328 50.4219 48.3125 50.6562 48.5312 50.8281C48.7656 51.0156 49.0078 51.1484 49.2578 51.2266C49.5078 51.3047 49.7422 51.3438 49.9609 51.3438C50.2266 51.3438 50.5156 51.3125 50.8281 51.25C51.1406 51.2031 51.4141 51.1406 51.6484 51.0625C51.7422 51.0312 51.8125 51.0547 51.8594 51.1328C51.9219 51.2109 51.9531 51.2812 51.9531 51.3438C51.9531 51.4062 51.9141 51.5156 51.8359 51.6719C51.7578 51.8438 51.6094 51.9766 51.3906 52.0703C51.1719 52.1797 50.8906 52.2891 50.5469 52.3984C50.2031 52.5078 49.7344 52.5625 49.1406 52.5625C48.75 52.5625 48.3438 52.4688 47.9219 52.2812C47.5 52.1094 47.1172 51.8594 46.7734 51.5312C46.4297 51.2188 46.1484 50.8516 45.9297 50.4297C45.7109 50.0078 45.6172 49.5547 45.6484 49.0703C45.6641 48.5547 45.7578 48.0391 45.9297 47.5234C46.1016 47.0078 46.2812 46.5078 46.4688 46.0234C46.6719 45.5391 46.8516 45.0781 47.0078 44.6406C47.1797 44.1875 47.2734 43.7656 47.2891 43.375C47.3203 42.6719 47.1406 42.1484 46.75 41.8047C46.3594 41.4453 45.6953 41.2656 44.7578 41.2656C44.4453 41.2656 44.1484 41.2812 43.8672 41.3125C43.6016 41.3438 43.3828 41.375 43.2109 41.4062C42.7891 43.5312 42.5 45.1328 42.3438 46.2109C42.1875 47.2891 42.1016 47.9922 42.0859 48.3203V48.7422C42.0859 48.8672 42.0938 48.9922 42.1094 49.1172C42.125 49.2578 42.1484 49.3906 42.1797 49.5156C41.8984 49.7188 41.6172 49.8672 41.3359 49.9609C41.0703 50.0703 40.8281 50.1484 40.6094 50.1953C40.3438 50.2578 40.1016 50.2891 39.8828 50.2891C39.7734 50.2891 39.6719 50.2734 39.5781 50.2422C39.5 50.2109 39.4219 50.1797 39.3438 50.1484C39.25 50.1172 39.1875 50.0625 39.1562 49.9844C39.4062 48.9375 39.6484 47.9297 39.8828 46.9609C40.1172 45.9922 40.3203 45.125 40.4922 44.3594C40.6953 43.4844 40.8906 42.6484 41.0781 41.8516C41.0156 41.7891 40.9609 41.7188 40.9141 41.6406C40.8672 41.5625 40.8281 41.4531 40.7969 41.3125ZM56.8516 50.3594C56.1172 50.3594 55.4297 50.2422 54.7891 50.0078C54.1641 49.7734 53.6094 49.4453 53.125 49.0234C52.6562 48.6016 52.2812 48.1016 52 47.5234C51.7188 46.9609 51.5703 46.3438 51.5547 45.6719C51.5391 44.7969 51.6797 44.0156 51.9766 43.3281C52.2578 42.6406 52.6328 42.0312 53.1016 41.5C53.5859 40.9688 54.1328 40.5234 54.7422 40.1641C55.3516 39.7891 55.9766 39.4844 56.6172 39.25C56.2734 39.0625 55.9453 38.8359 55.6328 38.5703C55.3359 38.3047 55.0703 38.0078 54.8359 37.6797C54.6016 37.3516 54.4141 37.0078 54.2734 36.6484C54.1328 36.2891 54.0625 35.9297 54.0625 35.5703C54.0312 34.4766 54.25 33.4844 54.7188 32.5938C55.2031 31.7031 55.8203 30.9453 56.5703 30.3203C57.3203 29.6797 58.1562 29.1875 59.0781 28.8438C60.0156 28.5 60.9297 28.3281 61.8203 28.3281C62.4141 28.3281 62.9219 28.4297 63.3438 28.6328C63.7656 28.8203 64.1094 29.0625 64.375 29.3594C64.6406 29.6406 64.8359 29.9531 64.9609 30.2969C65.1016 30.625 65.1797 30.9297 65.1953 31.2109C65.2109 31.7266 65.1406 32.25 64.9844 32.7812C64.8438 33.3125 64.6562 33.7969 64.4219 34.2344C64.2031 34.6562 63.9531 35.0078 63.6719 35.2891C63.3906 35.5547 63.1172 35.6875 62.8516 35.6875C62.6484 35.6875 62.4375 35.6562 62.2188 35.5938C62.0312 35.5469 61.8125 35.4688 61.5625 35.3594C61.3125 35.25 61.0625 35.0859 60.8125 34.8672C61.2188 34.7109 61.5781 34.4922 61.8906 34.2109C62.2031 33.9141 62.4609 33.5859 62.6641 33.2266C62.8828 32.8672 63.0391 32.5 63.1328 32.125C63.2422 31.7344 63.2969 31.3672 63.2969 31.0234C63.2812 30.5234 63.1641 30.1406 62.9453 29.875C62.7266 29.5938 62.375 29.4531 61.8906 29.4531C61.2344 29.4531 60.5781 29.6172 59.9219 29.9453C59.2656 30.2578 58.6797 30.7031 58.1641 31.2812C57.6641 31.8438 57.2656 32.5234 56.9688 33.3203C56.6875 34.1016 56.5938 34.9531 56.6875 35.875C56.7656 36.5781 56.9766 37.1719 57.3203 37.6562C57.6797 38.1406 58.0156 38.5156 58.3281 38.7812C58.5781 38.75 58.8125 38.7266 59.0312 38.7109C59.25 38.6797 59.4531 38.6641 59.6406 38.6641C59.9062 38.6641 60.1719 38.7109 60.4375 38.8047C60.7031 38.8984 60.8359 39.0312 60.8359 39.2031C60.8359 39.3281 60.8047 39.4688 60.7422 39.625C60.6953 39.7812 60.6094 39.9297 60.4844 40.0703C60.3594 40.2109 60.2109 40.3281 60.0391 40.4219C59.8672 40.5156 59.6641 40.5625 59.4297 40.5625C59.2422 40.5625 59.0156 40.5156 58.75 40.4219C58.4844 40.3281 58.2188 40.2109 57.9531 40.0703C57.3594 40.1953 56.8203 40.4219 56.3359 40.75C55.8516 41.0625 55.4375 41.4375 55.0938 41.875C54.7656 42.3125 54.5078 42.7891 54.3203 43.3047C54.1328 43.8203 54.0469 44.3203 54.0625 44.8047C54.0781 45.2578 54.1484 45.7109 54.2734 46.1641C54.3984 46.6328 54.5938 47.0469 54.8594 47.4062C55.125 47.7656 55.4688 48.0547 55.8906 48.2734C56.3281 48.5078 56.8516 48.625 57.4609 48.625C57.9141 48.625 58.3438 48.5234 58.75 48.3203C59.1719 48.1328 59.5625 47.8906 59.9219 47.5938C60.2812 47.2969 60.6094 46.9688 60.9062 46.6094C61.2031 46.25 61.4609 45.8984 61.6797 45.5547C61.8984 45.2109 62.0781 44.8984 62.2188 44.6172C62.375 44.3359 62.4844 44.1328 62.5469 44.0078C62.5938 43.9141 62.6562 43.8438 62.7344 43.7969C62.8281 43.75 62.9141 43.7422 62.9922 43.7734C63.0859 43.7891 63.1562 43.8438 63.2031 43.9375C63.25 44.0312 63.25 44.1719 63.2031 44.3594C63.0781 44.9219 62.8438 45.5469 62.5 46.2344C62.1562 46.9375 61.7109 47.5938 61.1641 48.2031C60.6328 48.8125 60 49.3203 59.2656 49.7266C58.5469 50.1484 57.7422 50.3594 56.8516 50.3594ZM71.8047 46.2109C71.8203 45.1953 71.9609 43.9141 72.2266 42.3672C72.4453 41.0391 72.7969 39.3438 73.2812 37.2812C73.7656 35.2188 74.4609 32.7344 75.3672 29.8281C75.4453 29.6719 75.5625 29.5391 75.7188 29.4297C75.8906 29.3203 76.0625 29.2266 76.2344 29.1484C76.4219 29.0703 76.6328 29.0078 76.8672 28.9609C77.0859 28.9141 77.2969 28.875 77.5 28.8438C77.6719 28.8125 77.8516 28.7969 78.0391 28.7969C78.2266 28.7969 78.3828 28.8125 78.5078 28.8438C77.9609 30.2188 77.4922 31.4688 77.1016 32.5938C76.7109 33.7031 76.3906 34.6641 76.1406 35.4766C75.8438 36.4297 75.6016 37.2734 75.4141 38.0078C75.1484 38.7891 74.9219 39.5703 74.7344 40.3516C74.5469 41.1328 74.3906 41.875 74.2656 42.5781C74.1562 43.2656 74.0703 43.8828 74.0078 44.4297C73.9609 44.9766 73.9375 45.4062 73.9375 45.7188C73.9531 46.6562 74.1094 47.3906 74.4062 47.9219C74.7031 48.4688 75.1875 48.7422 75.8594 48.7422C76.4219 48.7422 76.9453 48.4766 77.4297 47.9453C77.9297 47.4141 78.3828 46.7656 78.7891 46C79.2109 45.2188 79.5703 44.3828 79.8672 43.4922C80.1641 42.6016 80.3906 41.8047 80.5469 41.1016C80.5781 40.9766 80.6094 40.8047 80.6406 40.5859C80.8438 39.6172 81.0859 38.5391 81.3672 37.3516C81.6016 36.3359 81.8906 35.1406 82.2344 33.7656C82.5938 32.3906 83 30.8906 83.4531 29.2656C83.5781 29.1406 83.7188 29.0391 83.875 28.9609C84.0312 28.8828 84.1719 28.8203 84.2969 28.7734C84.4531 28.7109 84.6094 28.6719 84.7656 28.6562C84.9219 28.625 85.0859 28.6094 85.2578 28.6094C85.3984 28.6094 85.5625 28.625 85.75 28.6562C85.9375 28.6719 86.125 28.7109 86.3125 28.7734C86 29.6172 85.6953 30.5 85.3984 31.4219C85.1016 32.3281 84.8359 33.1719 84.6016 33.9531C84.3203 34.8594 84.0547 35.7578 83.8047 36.6484C83.4453 37.7734 83.1562 38.7891 82.9375 39.6953C82.7188 40.5859 82.5391 41.4141 82.3984 42.1797C82.2734 42.9297 82.1719 43.6328 82.0938 44.2891C82.0312 44.9297 81.9688 45.5625 81.9062 46.1875C81.8594 46.6875 81.8516 47.1562 81.8828 47.5938C81.9141 47.9844 81.9688 48.375 82.0469 48.7656C82.125 49.1562 82.2656 49.4844 82.4688 49.75C82.3906 49.8594 82.2812 49.9375 82.1406 49.9844C82 50.0312 81.8516 50.0703 81.6953 50.1016C81.5234 50.1328 81.3359 50.1484 81.1328 50.1484C80.7266 50.1484 80.4219 49.8906 80.2188 49.375C80.0312 48.875 79.9297 48.0703 79.9141 46.9609C79.7891 47.2109 79.5938 47.5234 79.3281 47.8984C79.0625 48.2891 78.7266 48.6641 78.3203 49.0234C77.9297 49.3984 77.4688 49.7188 76.9375 49.9844C76.4062 50.25 75.8125 50.3828 75.1562 50.3828C74.5 50.3828 73.9531 50.2656 73.5156 50.0312C73.0938 49.8125 72.75 49.5078 72.4844 49.1172C72.2344 48.7422 72.0547 48.2969 71.9453 47.7812C71.8516 47.2812 71.8047 46.7578 71.8047 46.2109ZM84.1562 49.3516C84.2188 49.3047 84.3203 49.2266 84.4609 49.1172C84.5859 49.0078 84.7422 48.8047 84.9297 48.5078C85.1016 48.2109 85.2969 47.7812 85.5156 47.2188C85.7344 46.6562 85.9609 45.8906 86.1953 44.9219C86.3203 44.4062 86.4844 43.75 86.6875 42.9531C86.8906 42.1562 87.1094 41.3047 87.3438 40.3984C87.5938 39.4922 87.8438 38.5625 88.0938 37.6094C88.3438 36.6406 88.5859 35.7266 88.8203 34.8672C89.0547 33.9922 89.2656 33.2031 89.4531 32.5C89.6406 31.7969 89.7891 31.25 89.8984 30.8594C89.6016 31.0469 89.3125 31.2578 89.0312 31.4922C88.7812 31.6953 88.5156 31.9297 88.2344 32.1953C87.9531 32.4453 87.6797 32.7109 87.4141 32.9922C87.2109 32.8203 87.0547 32.6328 86.9453 32.4297C86.8828 32.3359 86.8281 32.2344 86.7812 32.125C86.6875 31.8906 86.6406 31.6484 86.6406 31.3984C86.6406 31.1484 86.8359 30.8906 87.2266 30.625C87.4297 30.4844 87.7344 30.2812 88.1406 30.0156C88.5625 29.75 89.0781 29.4922 89.6875 29.2422C90.2969 28.9766 91.0078 28.75 91.8203 28.5625C92.6328 28.375 93.5312 28.2812 94.5156 28.2812C95.5 28.2812 96.2891 28.4766 96.8828 28.8672C97.4922 29.2578 97.9531 29.7344 98.2656 30.2969C98.5938 30.8594 98.8047 31.4531 98.8984 32.0781C98.9922 32.7031 99.0156 33.25 98.9688 33.7188C98.875 34.5938 98.5938 35.5078 98.125 36.4609C97.6562 37.4141 97.0078 38.2969 96.1797 39.1094C95.3516 39.9062 94.3438 40.5859 93.1562 41.1484C91.9688 41.7109 90.6094 42.0312 89.0781 42.1094C88.9531 42.7031 88.8281 43.3125 88.7031 43.9375C88.5781 44.5625 88.4453 45.1797 88.3047 45.7891C88.1641 46.3828 88.0156 46.9375 87.8594 47.4531C87.7188 47.9844 87.5703 48.4375 87.4141 48.8125C87.2578 49.2188 87.0547 49.5391 86.8047 49.7734C86.5547 50.0234 86.1562 50.1484 85.6094 50.1484C85.3281 50.1484 85.0703 50.0781 84.8359 49.9375C84.5859 49.7969 84.3594 49.6016 84.1562 49.3516ZM89.7109 38.6641C89.6641 38.9141 89.6016 39.2422 89.5234 39.6484C89.4609 40.0391 89.3828 40.4844 89.2891 40.9844C89.7109 40.9219 90.1797 40.8125 90.6953 40.6562C91.2109 40.4844 91.7266 40.2578 92.2422 39.9766C92.7578 39.6953 93.2578 39.3594 93.7422 38.9688C94.2422 38.5625 94.6953 38.1016 95.1016 37.5859C95.5078 37.0547 95.8438 36.4609 96.1094 35.8047C96.3906 35.1328 96.5703 34.3906 96.6484 33.5781C96.7266 32.7969 96.6797 32.1484 96.5078 31.6328C96.3516 31.1016 96.1172 30.6797 95.8047 30.3672C95.4922 30.0391 95.1328 29.8125 94.7266 29.6875C94.3203 29.5469 93.9141 29.4766 93.5078 29.4766C93.1172 29.4766 92.7344 29.5312 92.3594 29.6406C91.9844 29.75 91.6094 29.8906 91.2344 30.0625C91.2812 30.0781 91.3359 30.1172 91.3984 30.1797C91.4922 30.2734 91.5625 30.4062 91.6094 30.5781C91.2344 32.0938 90.9219 33.3594 90.6719 34.375C90.4375 35.3906 90.25 36.2188 90.1094 36.8594C89.9375 37.6094 89.8047 38.2109 89.7109 38.6641ZM105.883 39.2266C105.445 39.2109 104.891 39.2109 104.219 39.2266C103.547 39.2266 102.883 39.2344 102.227 39.25C101.789 39.2656 101.344 39.2969 100.891 39.3438C100.5 39.375 100.07 39.4219 99.6016 39.4844C99.1328 39.5469 98.6875 39.6406 98.2656 39.7656C98.25 39.6406 98.25 39.5234 98.2656 39.4141C98.2812 39.2891 98.3047 39.1719 98.3359 39.0625C98.3672 38.9375 98.3984 38.8203 98.4297 38.7109C98.4922 38.5547 98.5781 38.3906 98.6875 38.2188C98.8125 38.0469 98.9219 37.9375 99.0156 37.8906C99.0938 37.8594 99.25 37.8281 99.4844 37.7969C99.7344 37.7656 100.023 37.7422 100.352 37.7266C100.695 37.6953 101.07 37.6719 101.477 37.6562C101.898 37.6406 102.312 37.6328 102.719 37.6328C103.547 37.6172 104.234 37.625 104.781 37.6562C105.328 37.6719 105.852 37.7031 106.352 37.75C106.57 37.7812 106.695 37.8516 106.727 37.9609C106.773 38.0703 106.75 38.2656 106.656 38.5469C106.562 38.8125 106.461 39 106.352 39.1094C106.242 39.2031 106.086 39.2422 105.883 39.2266Z" fill="white"/>
</svg>
